<?xml version="1.0" standalone="no"?>
<!DOCTYPE svg PUBLIC "-//W3C//DTD SVG 20010904//EN"
 "http://www.w3.org/TR/2001/REC-SVG-20010904/DTD/svg10.dtd">
<svg version="1.0" xmlns="http://www.w3.org/2000/svg"
 width="1024.000000pt" height="1024.000000pt" viewBox="0 0 1024.000000 1024.000000"
 preserveAspectRatio="xMidYMid meet">

<g transform="translate(0.000000,1024.000000) scale(0.100000,-0.100000)"
fill="#000000" stroke="none">
<path d="M6865 7013 c-88 -6 -302 -23 -475 -37 -173 -15 -422 -34 -552 -43
-131 -10 -238 -21 -238 -25 0 -5 84 -93 186 -198 102 -104 184 -194 182 -199
-3 -9 -215 -259 -1183 -1390 -900 -1053 -1213 -1422 -1230 -1451 -7 -12 -5
-12 11 1 96 79 395 313 1744 1365 338 264 740 578 893 699 153 121 284 223
291 227 7 4 80 -65 191 -182 99 -104 183 -189 186 -190 3 0 11 51 17 113 26
244 73 667 107 967 20 173 35 323 33 335 -3 20 -5 20 -163 8z"/>
<path d="M3122 5118 l3 -1883 1860 -1 c1023 -1 1884 1 1913 3 l52 5 0 976 0
976 -210 211 -210 210 0 -977 0 -976 -1487 -4 c-819 -2 -1491 -2 -1495 0 -5 2
-8 660 -8 1463 l0 1459 1045 0 c575 0 1045 3 1045 8 0 4 -91 98 -203 210
l-202 202 -1053 0 -1052 0 2 -1882z"/>
</g>
</svg>
