<?xml version="1.0" standalone="no"?>
<!DOCTYPE svg PUBLIC "-//W3C//DTD SVG 20010904//EN"
 "http://www.w3.org/TR/2001/REC-SVG-20010904/DTD/svg10.dtd">
<svg version="1.0" xmlns="http://www.w3.org/2000/svg"
 width="1024.000000pt" height="1024.000000pt" viewBox="0 0 1024.000000 1024.000000"
 preserveAspectRatio="xMidYMid meet">

<g transform="translate(0.000000,1024.000000) scale(0.100000,-0.100000)"
fill="#000000" stroke="none">
<path d="M0 5120 l0 -5120 5120 0 5120 0 0 5120 0 5120 -5120 0 -5120 0 0
-5120z m6990 1887 c0 -13 -31 -306 -69 -653 -38 -346 -73 -660 -77 -698 l-7
-68 -191 191 -191 191 -115 -92 c-122 -99 -697 -549 -1330 -1042 -1001 -780
-1490 -1165 -1490 -1172 0 -2 668 -4 1485 -4 l1485 0 0 977 0 978 210 -210
210 -210 0 -976 0 -976 -67 -6 c-38 -4 -899 -7 -1915 -7 l-1848 0 -2 1323 c-1
727 -2 1574 -3 1882 l0 560 1055 3 1055 2 202 -202 c112 -112 203 -206 203
-210 0 -5 -470 -8 -1045 -8 l-1045 0 0 -1460 0 -1460 53 62 c472 559 658 777
902 1063 160 187 450 527 645 755 194 228 461 540 592 692 131 152 238 280
238 284 0 4 -87 95 -192 203 l-193 195 360 28 c283 22 1006 81 1073 87 6 0 12
-9 12 -22z"/>
</g>
</svg>
