<?xml version="1.0" encoding="UTF-8"?>
<svg version="1.1" xmlns="http://www.w3.org/2000/svg" width="512" height="512">
<path d="M0 0 C0.92278244 -0.00701431 1.84556488 -0.01402863 2.79631042 -0.02125549 C5.75618429 -0.03865636 8.71585812 -0.04510733 11.67578125 -0.046875 C13.19235321 -0.04788712 13.19235321 -0.04788712 14.73956299 -0.04891968 C29.37297262 -0.03338219 43.59077521 0.37474252 57.98828125 3.203125 C58.88385742 3.36409668 59.77943359 3.52506836 60.70214844 3.69091797 C105.80791539 11.85134609 149.55881729 32.62730244 182.98828125 64.203125 C184.27556043 65.31240365 185.56716409 66.41668591 186.86328125 67.515625 C196.15302991 75.64180918 204.37193424 84.50244206 211.98828125 94.203125 C212.85787124 95.27205842 213.72903093 96.33971633 214.6015625 97.40625 C250.24355266 141.29728749 269.1883043 196.96175205 269.23828125 253.328125 C269.23929337 254.36826248 269.23929337 254.36826248 269.24032593 255.42941284 C269.17665886 297.09088176 258.62341215 337.4994832 238.98828125 374.203125 C238.3746875 375.35941406 237.76109375 376.51570313 237.12890625 377.70703125 C228.11050087 394.08549887 216.71874553 409.07727065 204.1171875 422.8515625 C202.31003528 424.84771963 200.58470979 426.88388865 198.86328125 428.953125 C181.91072941 448.33306301 160.15213377 463.43683888 137.98828125 476.203125 C136.86421875 476.86054688 135.74015625 477.51796875 134.58203125 478.1953125 C78.87006317 509.43918649 8.36410746 516.77579234 -53.01171875 500.203125 C-67.43153893 495.97745239 -82.01230663 491.46373037 -95.34716797 484.4519043 C-103.9142172 480.18376827 -113.84989659 483.93050937 -122.70410156 485.97875977 C-124.61006148 486.41313888 -126.51602149 486.84751758 -128.42198515 487.28188026 C-130.45360591 487.74588836 -132.48464809 488.21235426 -134.51554108 488.67953682 C-138.75899448 489.65552766 -143.00420059 490.62373625 -147.24969482 491.59080505 C-157.02118711 493.8178329 -166.79047829 496.0544528 -176.55958557 498.29191589 C-185.52909858 500.34624158 -194.49907202 502.39848204 -203.47109103 504.44183964 C-207.6898924 505.40297722 -211.90746495 506.36928645 -216.12416887 507.33958256 C-218.11409259 507.79661651 -220.10456247 508.25117356 -222.0953064 508.70462036 C-224.51999429 509.25691642 -226.94380437 509.81308625 -229.36654663 510.37385559 C-230.43742523 510.6164209 -231.50830383 510.85898621 -232.6116333 511.10890198 C-233.53925098 511.32145913 -234.46686867 511.53401628 -235.42259598 511.75301456 C-238.00796983 512.20247326 -240.39342929 512.28592846 -243.01171875 512.203125 C-240.27842833 498.1657048 -237.28954214 484.19576984 -234.17466164 470.23838615 C-233.38587962 466.70163167 -232.60061221 463.16411293 -231.81632996 459.62635803 C-229.5899406 449.58444558 -227.3606716 439.54318503 -225.12133789 429.50415039 C-223.7427436 423.32267711 -222.37084582 417.1397496 -221.00321007 410.95584297 C-220.48462899 408.61706919 -219.96356479 406.27884447 -219.43988991 403.94120598 C-218.70857364 400.67563 -217.98582121 397.40826343 -217.26489258 394.14038086 C-216.94308517 392.71798851 -216.94308517 392.71798851 -216.61477661 391.26686096 C-214.23455528 380.38163657 -212.86349588 372.55115986 -218.38671875 362.578125 C-227.98614559 343.83784266 -234.57518965 323.76782271 -239.01171875 303.203125 C-239.22199707 302.24470703 -239.43227539 301.28628906 -239.64892578 300.29882812 C-252.431214 239.04909867 -238.63483369 170.56208287 -204.61157227 118.26757812 C-197.16334217 107.05442563 -189.22422027 96.38274574 -180.09375 86.46875 C-178.18731435 84.39420464 -176.34406265 82.28046569 -174.51171875 80.140625 C-168.16341714 72.88958325 -161.33402269 66.45448911 -153.8046875 60.44140625 C-152.01484527 59.00702919 -150.24436169 57.54794766 -148.5 56.05859375 C-108.54099917 22.09650269 -52.52006649 0.26853864 0 0 Z M-133.46484375 97.80859375 C-135.5343741 99.75433318 -137.63041005 101.58995458 -139.82421875 103.390625 C-143.64928636 106.63641555 -146.79140371 110.37003746 -150.01171875 114.203125 C-151.12160156 115.46382812 -151.12160156 115.46382812 -152.25390625 116.75 C-188.28934936 158.42677446 -206.31200875 214.3098726 -202.38671875 269.140625 C-199.92721213 298.67222546 -191.5229632 329.05457891 -176.40625 354.71875 C-175.77384399 355.79286133 -175.77384399 355.79286133 -175.12866211 356.88867188 C-174.33009742 358.2161071 -173.51072887 359.53136269 -172.66625977 360.83007812 C-168.42554391 367.75077579 -171.10633704 375.15098448 -172.77758789 382.60693359 C-172.95329819 383.40468201 -173.12900848 384.20243042 -173.31004333 385.02435303 C-173.88567176 387.63416797 -174.46631753 390.24284007 -175.046875 392.8515625 C-175.44938733 394.67371434 -175.85151665 396.49595083 -176.25328064 398.31826782 C-177.30729741 403.09550813 -178.36528898 407.8718581 -179.42449951 412.64794922 C-181.12411645 420.31306994 -182.81937984 427.979149 -184.51138115 435.64595413 C-185.10333662 438.32424201 -185.69804503 441.00190842 -186.29298401 443.67953491 C-186.65384034 445.31156171 -187.01459911 446.94361009 -187.37524414 448.57568359 C-187.54198639 449.32268524 -187.70872864 450.06968689 -187.88052368 450.83932495 C-188.71870306 454.48665812 -188.71870306 454.48665812 -189.01171875 458.203125 C-183.41059295 457.59751618 -178.10074674 456.61000275 -172.64648438 455.21850586 C-171.00063791 454.80782631 -169.3546772 454.39760443 -167.70861816 453.98777771 C-166.41659233 453.66423215 -166.41659233 453.66423215 -165.09846497 453.33415031 C-159.51629149 451.94681724 -153.92039995 450.6155804 -148.32694244 449.2746191 C-143.43327272 448.09809756 -138.54606252 446.90199639 -133.66796875 445.66235352 C-128.92346917 444.45785003 -124.16832759 443.30948586 -119.40153503 442.19662666 C-117.60125798 441.76613945 -115.80550903 441.31617947 -114.01533508 440.84544182 C-103.23438519 438.02422623 -96.0327387 437.25211715 -86.14329529 442.9825201 C-84.4237189 444.04149692 -82.71721878 445.12162396 -81.01171875 446.203125 C-79.34466986 447.01160597 -77.66504848 447.79632043 -75.9609375 448.5234375 C-75.25356445 448.82789795 -74.54619141 449.1323584 -73.81738281 449.44604492 C-19.19644633 472.19217718 40.38956662 473.4706541 95.54443359 451.23095703 C101.8802627 448.5662377 107.9496325 445.47670014 113.98828125 442.203125 C114.64489746 441.85668945 115.30151367 441.51025391 115.97802734 441.15332031 C137.98243487 429.53737372 159.04583511 413.38175145 174.98828125 394.203125 C175.8184375 393.26082031 176.64859375 392.31851562 177.50390625 391.34765625 C188.51103625 378.79902072 197.2205806 364.94889343 204.98828125 350.203125 C205.32569336 349.56777832 205.66310547 348.93243164 206.01074219 348.27783203 C216.08357462 329.01169742 222.73355415 307.66760913 225.98828125 286.203125 C226.10252441 285.49559082 226.21676758 284.78805664 226.33447266 284.05908203 C234.81514876 229.97121443 219.4876493 173.97327486 187.57446289 130.01318359 C182.54950921 123.21931095 177.18329729 116.89071351 171.3828125 110.75 C169.43707307 108.68046965 167.60145167 106.5844337 165.80078125 104.390625 C162.5537253 100.56570316 158.81507379 97.4319812 154.98828125 94.203125 C154.03953125 93.36652344 153.09078125 92.52992187 152.11328125 91.66796875 C78.03784567 26.75065595 -35.22868825 24.28587099 -133.46484375 97.80859375 Z " fill="#000000" transform="translate(243.01171875,-0.203125)"/>
<path d="M0 0 C3.04618945 3.4093433 4.95982221 6.71102283 6.734375 10.91015625 C7.46672363 12.6286377 7.46672363 12.6286377 8.21386719 14.38183594 C8.97425293 16.20376465 8.97425293 16.20376465 9.75 18.0625 C10.27996282 19.32207084 10.81023887 20.58150993 11.34082031 21.84082031 C12.40203729 24.36506838 13.45714645 26.89175339 14.5078125 29.42041016 C15.84349923 32.62457226 17.1997056 35.81902566 18.5625 39.01171875 C19.29310533 40.75721102 20.02237556 42.50326302 20.75 44.25 C21.08483398 45.02738525 21.41966797 45.80477051 21.76464844 46.60571289 C24.1788667 52.51976803 25.14348515 57.54059555 23.07421875 63.80078125 C19.36560849 70.51806687 15.03344434 75.29903456 9.390625 80.39453125 C6.73791618 83.2856371 5.67323007 85.14148736 5 89 C7.5848469 97.05650878 13.88399858 104.37094826 19 111 C19.66644531 111.87269531 20.33289063 112.74539063 21.01953125 113.64453125 C38.37336616 135.63464116 61.55771088 153.27948946 88 163 C92.60896546 163.47774782 92.60896546 163.47774782 96.375 161.0625 C97.26176484 160.0518696 98.13521737 159.02950313 99 158 C99.57363281 157.37996094 100.14726562 156.75992188 100.73828125 156.12109375 C105.32514799 151.12977384 109.48184577 145.88297908 113.4987793 140.4296875 C117.97493744 134.44816825 117.97493744 134.44816825 121 133 C127.2201413 133.14404538 132.05220509 135.00051759 137.625 137.625 C138.45314209 138.00672363 139.28128418 138.38844727 140.13452148 138.78173828 C148.50479359 142.68480226 156.7869868 146.7757428 165.0625 150.875 C166.06751556 151.37015106 166.06751556 151.37015106 167.09283447 151.87530518 C169.01449057 152.82431409 170.93165181 153.78182866 172.84765625 154.7421875 C174.5184021 155.57532471 174.5184021 155.57532471 176.22290039 156.42529297 C178.63486495 157.79295639 180.31288607 158.82477661 182 161 C183.72056705 172.22243735 181.27817771 185.26612277 175.3125 194.9375 C166.68942313 206.33532932 152.76704861 215.05716818 138.64453125 217.60546875 C97.79925805 222.02708996 53.23702078 201.12508329 22 176 C8.32004582 164.96507951 -4.18173209 152.8760252 -15 139 C-15.81339844 138.00355469 -16.62679687 137.00710938 -17.46484375 135.98046875 C-38.6614094 109.89451456 -59.83733454 80.02385993 -56.4609375 44.80859375 C-54.67240408 30.03045747 -48.87964067 17.70050002 -38.875 6.75 C-38.38459229 6.21318604 -37.89418457 5.67637207 -37.38891602 5.12329102 C-28.61538003 -3.97905073 -10.99044534 -7.08273144 0 0 Z " fill="#000000" transform="translate(195,144)"/>
</svg>
